<svg width="69" height="69" viewBox="0 0 69 69" fill="none" xmlns="http://www.w3.org/2000/svg">
<path fill-rule="evenodd" clip-rule="evenodd" d="M21.071 66.2899C25.3194 68.0876 29.8869 69.0094 34.5 68.9999C39.1129 69.009 43.6802 68.0866 47.928 66.2879C52.0271 64.5551 55.7517 62.0445 58.8959 58.895C62.0459 55.7519 64.5566 52.0278 66.2889 47.929C68.0864 43.6805 69.0085 39.1131 68.9999 34.5C69.0085 29.8877 68.0868 25.321 66.2899 21.073C64.5579 16.974 62.0472 13.2499 58.8969 10.1071C55.7543 6.95537 52.0293 4.4442 47.929 2.71308C43.681 0.913631 39.1133 -0.00915556 34.5 8.154e-05C29.887 -0.00998119 25.3194 0.911425 21.071 2.70908C16.9713 4.44022 13.247 6.95141 10.105 10.1031C6.95449 13.2459 4.44346 16.97 2.71106 21.069C0.913274 25.3181 -0.00878533 29.8862 6.3085e-05 34.5C-0.00878533 39.1138 0.913274 43.6819 2.71106 47.931C4.4438 52.0298 6.95479 55.7539 10.105 58.897C13.2483 62.0468 16.9723 64.5574 21.071 66.2899ZM27.5 27C27.5033 25.8968 28.3968 25.0033 29.5 25C29.851 24.9976 30.1963 25.089 30.5 25.265L43.509 32.797C44.1308 33.1507 44.5132 33.8126 44.509 34.528C44.5128 35.243 44.1305 35.9045 43.509 36.258L30.5 43.791C30.1967 43.9687 29.8515 44.0622 29.5 44.062C28.3968 44.0587 27.5033 43.1652 27.5 42.062V27Z" fill="white"/>
</svg>
