<svg width="26" height="25" viewBox="0 0 26 25" fill="none" xmlns="http://www.w3.org/2000/svg">
<path d="M0.246396 1.48078L1.78187 3.01625C0.619501 4.33037 -0.0151557 6.02832 0.000274901 7.78268C0.000274901 12.6656 4.34335 16.5853 10.9218 22.6289L12.7834 24.293L14.6379 22.6218C15.9029 21.4611 17.089 20.3733 18.1697 19.3483L23.8345 25L25.3082 23.5263L1.73224 0L0.246396 1.48078Z" fill="white"/>
<path d="M25.5593 7.7766C25.5926 5.89902 24.8643 4.08795 23.5404 2.75609C22.2166 1.42422 20.41 0.685034 18.5322 0.706957C16.3126 0.717768 14.21 1.7037 12.7823 3.40315C11.3548 1.70397 9.2526 0.718065 7.0334 0.706957C6.53183 0.707608 6.03162 0.75919 5.54047 0.86091L21.1281 16.406C23.9185 13.4161 25.5593 10.7807 25.5593 7.7766Z" fill="white"/>
</svg>
