<svg width="25" height="25" viewBox="0 0 25 25" fill="none" xmlns="http://www.w3.org/2000/svg">
<path d="M18.9297 13.762H13.761V18.9307H11.237V13.762H6.0693V11.238H11.238V6.07029H13.762V11.239H18.9307L18.9297 13.762Z" fill="white"/>
<path fill-rule="evenodd" clip-rule="evenodd" d="M4.68197e-09 12.5003C-0.000186902 5.59704 5.59568 0.000560843 12.499 4.12821e-08H12.5C15.8155 -0.000269229 18.9952 1.31674 21.3395 3.66122C23.6838 6.0057 25.0005 9.18554 25 12.501C24.9994 19.4043 19.4029 25.0002 12.4996 25C5.59636 24.9998 0.000186911 19.4036 4.68197e-09 12.5003ZM22.2764 10.5539C21.3499 5.88803 17.2569 2.52618 12.5 2.52396H12.499C9.85208 2.51895 7.3126 3.57034 5.44387 5.44489C2.08033 8.80862 1.56099 14.0798 4.20341 18.0353C6.84583 21.9907 11.9142 23.5291 16.3094 21.7097C20.7046 19.8902 23.2028 15.2197 22.2764 10.5539Z" fill="white"/>
</svg>
