<svg width="14" height="14" viewBox="0 0 14 14" fill="none" xmlns="http://www.w3.org/2000/svg">
<path d="M8.63993 6.99999L13.5938 2.04611C13.9985 1.58615 13.9758 0.890766 13.5419 0.458227C13.108 0.0256883 12.4125 0.00514897 11.9539 0.411327L6.99999 5.36521L2.04611 0.411327C1.76361 0.0770277 1.317 -0.0698117 0.891239 0.0316179C0.465477 0.133048 0.133048 0.465477 0.0316179 0.891239C-0.0698117 1.317 0.0770277 1.76361 0.411327 2.04611L5.36521 6.99999L0.411327 11.9539C0.022098 12.4145 0.0506855 13.0965 0.477095 13.5229C0.903504 13.9493 1.58551 13.9779 2.04611 13.5886L6.99999 8.63477L11.9539 13.5886C12.2364 13.9229 12.683 14.0698 13.1087 13.9684C13.5345 13.8669 13.8669 13.5345 13.9684 13.1087C14.0698 12.683 13.9229 12.2364 13.5886 11.9539L8.63993 6.99999Z" fill="white"/>
</svg>
