<svg width="60" height="60" viewBox="0 0 60 60" fill="none" xmlns="http://www.w3.org/2000/svg">
<circle cx="30.0138" cy="30.0128" r="18.7593" fill="black"/>
<path fill-rule="evenodd" clip-rule="evenodd" d="M18.3223 57.643C22.0164 59.2066 25.9882 60.0079 29.9995 59.999C34.0112 60.0083 37.9834 59.2069 41.6777 57.643C45.2416 56.1364 48.4801 53.9541 51.2144 51.2164C53.9528 48.4825 56.1355 45.244 57.642 41.6798C59.2055 37.9856 60.0075 34.014 60 30.0026C60.0077 25.9908 59.2057 22.0188 57.642 18.3244C56.1367 14.7595 53.9538 11.5208 51.2144 8.78768C48.4817 6.04728 45.2429 3.86365 41.6777 2.35807C37.9835 0.793472 34.0113 -0.00857531 29.9995 6.91395e-05C25.988 -0.00843835 22.0162 0.793607 18.3223 2.35807C14.7572 3.86322 11.5186 6.0469 8.78666 8.78768C6.04611 11.5202 3.86246 14.7591 2.35704 18.3244C0.793786 22.0189 -0.00787452 25.9909 5.83032e-05 30.0026C-0.00765411 34.0139 0.794 37.9855 2.35704 41.6798C3.86353 45.2444 6.04705 48.4831 8.78666 51.2164C11.5205 53.9542 14.7587 56.1366 18.3223 57.643ZM23.9104 23.4784C23.9126 22.5174 24.6914 21.739 25.6525 21.7374C25.9578 21.7371 26.2576 21.8189 26.5204 21.9742L37.8317 28.5227C38.3719 28.8307 38.7038 29.4062 38.6997 30.028C38.7037 30.6492 38.3717 31.2241 37.8317 31.5312L26.5204 38.0828C26.2571 38.237 25.9576 38.3187 25.6525 38.3196C24.6902 38.3179 23.9109 37.5377 23.9104 36.5755V23.4784Z" fill="white"/>
</svg>
