<svg width="20" height="25" viewBox="0 0 20 25" fill="none" xmlns="http://www.w3.org/2000/svg">
<path d="M18.646 0.0139589L6.25777 2.41691C6.00035 2.43787 5.79509 2.64056 5.7709 2.8977V17.3235C5.77484 17.5653 5.72578 17.8051 5.62717 18.026C5.41935 18.3993 5.07097 18.6741 4.65951 18.7892C4.45707 18.855 4.19087 18.9157 3.87202 18.9916C2.42459 19.3165 0.00240173 19.8692 0.00240173 22.1041C-0.0584628 23.5716 1.04455 24.8279 2.50759 24.9575C2.6484 24.982 2.79083 24.9962 2.93372 25C4.00436 24.9608 5.05379 24.6901 6.00978 24.2064C6.96691 23.5733 7.51753 22.4809 7.45722 21.3348V8.56296C7.4568 8.33484 7.61803 8.13839 7.84185 8.09431L16.9739 6.25009C17.1149 6.2213 17.2614 6.25722 17.3732 6.34798C17.4849 6.43874 17.5501 6.57479 17.5508 6.71874V14.5835C17.5672 14.8616 17.5158 15.1394 17.401 15.3933C17.1922 15.7681 16.8412 16.0432 16.4273 16.1564C16.2249 16.2222 15.8989 16.283 15.5801 16.3589C14.1326 16.6838 11.7105 17.2304 11.7105 19.4653C11.6307 20.9501 12.7434 22.2303 14.2248 22.3582C14.6142 22.3862 15.0056 22.3682 15.3908 22.3045C16.161 22.1704 16.9027 21.9062 17.5842 21.5231C18.6395 20.9492 19.2792 19.8277 19.2361 18.6272V0.476532C19.2364 0.330079 19.1692 0.191676 19.0539 0.101325C18.9386 0.0109748 18.7882 -0.0212523 18.646 0.0139589Z" fill="white"/>
</svg>
