<svg width="25" height="25" viewBox="0 0 25 25" fill="none" xmlns="http://www.w3.org/2000/svg">
<path fill-rule="evenodd" clip-rule="evenodd" d="M22.5 0H7.5C6.12093 0.00396367 5.00396 1.12093 5 2.5V17.5C5.00396 18.8791 6.12093 19.996 7.5 20H22.5C23.8791 19.996 24.996 18.8791 25 17.5V2.5C24.996 1.12093 23.8791 0.00396367 22.5 0ZM20 6.25051H16.2505V13.1258C16.2499 14.8513 14.8509 16.2497 13.1254 16.2495C11.3999 16.2493 10.0012 14.8506 10.001 13.1251C10.0008 11.3996 11.3993 10.0006 13.1247 10C13.8032 9.99852 14.4629 10.2226 15 10.6371V3.74948H20V6.25051ZM0 5H2.5V22.5H20V25H2.5C1.12093 24.996 0.00396367 23.8791 0 22.5V5Z" fill="white"/>
</svg>
