<svg width="19" height="16" viewBox="0 0 19 16" fill="none" xmlns="http://www.w3.org/2000/svg">
<path fill-rule="evenodd" clip-rule="evenodd" d="M0 1C0 1.55228 0.447715 2 1 2H18C18.5523 2 19 1.55228 19 1C19 0.447715 18.5523 0 18 0H1C0.447715 0 0 0.447715 0 1ZM1 9C0.447715 9 0 8.55229 0 8C0 7.44772 0.447715 7 1 7H18C18.5523 7 19 7.44772 19 8C19 8.55229 18.5523 9 18 9H1ZM1 16C0.447715 16 0 15.5523 0 15C0 14.4477 0.447715 14 1 14H18C18.5523 14 19 14.4477 19 15C19 15.5523 18.5523 16 18 16H1Z" fill="white"/>
</svg>
